<?xml version="1.0" standalone="no"?>
<!DOCTYPE svg PUBLIC "-//W3C//DTD SVG 20010904//EN"
 "http://www.w3.org/TR/2001/REC-SVG-20010904/DTD/svg10.dtd">
<svg version="1.0" xmlns="http://www.w3.org/2000/svg"
 width="100pt" height="80pt" viewBox="0 0 368.000000 175.000000"
 preserveAspectRatio="xMidYMid meet">

<g transform="translate(0.000000,175.000000) scale(0.100000,-0.100000)"
fill="#160444" stroke="none">
<path d="M1480 1524 c-14 -2 -59 -9 -100 -15 -115 -17 -222 -55 -368 -129
-167 -86 -227 -101 -445 -108 -92 -2 -170 -9 -173 -13 -3 -5 2 -22 11 -38 24
-47 19 -114 -12 -174 -23 -44 -28 -64 -28 -132 0 -44 6 -97 13 -117 l14 -38
108 0 108 0 7 43 c21 127 112 226 244 264 l46 13 -60 -4 c-33 -3 -87 -14 -119
-26 -44 -15 -85 -20 -158 -20 -54 0 -98 2 -98 4 0 2 9 23 20 47 11 24 20 56
20 71 0 24 5 28 58 39 91 19 255 14 342 -10 232 -65 464 -98 750 -107 211 -6
316 8 143 19 -226 15 -542 67 -669 111 -84 28 -154 63 -154 76 0 17 183 98
270 119 177 43 428 45 650 5 107 -19 294 -68 361 -94 115 -46 41 8 -104 75
-232 107 -507 163 -677 139z"/>
<path d="M2185 1213 c-265 -14 -951 -13 -990 1 -15 6 -16 5 -5 -2 24 -16 215
-50 342 -62 62 -5 408 -12 768 -14 585 -3 661 -5 715 -20 164 -48 240 -127
302 -311 l23 -70 -5 81 c-10 184 -109 320 -273 374 -128 42 -394 49 -877 23z"/>
<path d="M2694 1054 c-66 -24 -119 -77 -158 -157 -19 -40 -37 -80 -40 -89 -5
-17 -41 -18 -576 -18 l-570 0 -29 58 c-39 77 -92 136 -144 161 -70 34 -82 26
-31 -21 61 -56 95 -126 102 -205 l5 -63 673 0 674 0 0 48 c1 133 83 248 205
285 l50 16 -60 0 c-33 -1 -79 -7 -101 -15z"/>
<path d="M867 986 c-135 -37 -215 -197 -158 -321 44 -97 118 -145 223 -145
140 0 238 101 238 244 0 150 -154 263 -303 222z"/>
<path d="M2857 989 c-77 -18 -143 -72 -171 -141 -22 -51 -20 -143 3 -193 57
-122 205 -171 329 -109 199 99 159 397 -59 443 -56 12 -50 12 -102 0z"/>
<path d="M440 288 c-134 -161 -125 -148 -101 -148 13 0 21 6 21 18 0 37 29 62
72 62 l41 0 -6 -40 c-5 -39 -5 -40 26 -40 l32 0 3 125 c1 69 1 125 -1 125 -1
0 -41 -46 -87 -102z m33 -20 c-7 -41 -6 -40 -39 -36 l-27 3 27 33 c15 17 32
32 37 32 5 0 6 -15 2 -32z"/>
<path d="M1185 371 c-48 -22 -69 -44 -90 -94 -20 -49 -19 -79 6 -111 29 -37
104 -37 147 -1 34 28 72 99 72 133 0 34 -20 69 -47 81 -32 15 -41 14 -88 -8z
m81 -27 c8 -32 -13 -117 -40 -157 -27 -40 -69 -48 -86 -17 -8 16 -7 35 5 83
18 72 38 105 68 116 30 11 46 3 53 -25z"/>
<path fill="white" d="M1545 372 c-73 -34 -102 -84 -96 -162 4 -57 98 -92 147 -55 17 13 16
13 -12 3 -27 -10 -36 -9 -58 5 -72 48 13 238 95 212 10 -4 25 -18 33 -32 l13
-26 5 31 c4 25 1 32 -12 32 -10 0 -30 2 -46 5 -17 3 -45 -2 -69 -13z"/>
<path fill="white" d="M1848 374 c30 -21 29 -83 -2 -149 -27 -59 -47 -78 -78 -73 -20 3 -23
10 -26 50 -4 54 29 140 62 163 32 23 -4 18 -38 -5 -69 -45 -100 -156 -56 -200
32 -32 101 -27 144 10 40 35 66 86 66 128 0 44 -9 61 -41 77 -37 20 -59 19
-31 -1z"/>
<path fill="white" d="M2644 343 c-21 -26 -33 -44 -26 -39 9 5 12 -4 12 -33 0 -39 -2 -41
-30 -41 -36 0 -37 6 -8 37 12 13 19 23 16 23 -2 0 -35 -34 -72 -75 -62 -69
-65 -75 -42 -75 17 0 24 4 20 13 -2 7 5 25 16 40 17 21 30 27 62 27 l41 0 -6
-40 c-5 -39 -5 -40 26 -40 l32 0 0 125 c0 69 -1 125 -1 125 -1 0 -19 -21 -40
-47z"/>
<path d="M637 372 c10 -6 8 -24 -7 -77 -35 -122 -23 -155 56 -155 58 0 87 28
109 105 9 31 15 59 12 61 -2 3 -12 -22 -21 -54 -17 -63 -49 -102 -83 -102 -21
0 -53 24 -53 39 0 24 52 176 63 183 7 4 -10 8 -38 8 -28 0 -45 -4 -38 -8z"/>
<path d="M808 348 c5 -32 5 -32 14 -8 5 13 14 28 21 32 7 5 2 8 -14 8 -23 0
-25 -3 -21 -32z"/>
<path d="M890 371 c0 -5 -3 -17 -7 -27 -6 -16 -3 -15 21 4 28 22 56 29 56 15
0 -12 -58 -202 -65 -213 -4 -6 10 -10 33 -10 35 0 39 2 35 23 -4 28 49 199 64
204 6 2 18 -3 26 -12 21 -20 27 -19 27 5 0 19 -7 20 -95 20 -52 0 -95 -4 -95
-9z"/>
<path fill="white" d="M2014 343 c8 -21 18 -73 21 -115 4 -43 10 -78 14 -78 3 0 34 41 69
92 37 55 62 84 62 73 0 -29 -36 -144 -50 -161 -11 -12 -6 -14 28 -14 33 0 39
3 36 18 -3 9 10 63 29 120 l33 102 -28 0 c-24 0 -36 -12 -80 -80 -29 -44 -56
-80 -59 -80 -4 0 -10 36 -14 80 l-7 80 -34 0 -34 0 14 -37z"/>
<path fill="white" d="M2336 363 c3 -10 -10 -64 -29 -120 l-33 -103 33 0 c22 0 33 5 32 13
-2 6 1 31 5 53 7 40 9 42 52 47 77 8 120 71 76 110 -13 12 -37 17 -79 17 -53
0 -61 -2 -57 -17z m97 -14 c22 -35 -37 -111 -63 -82 -4 4 -1 30 7 56 15 50 35
59 56 26z"/>
<path fill="white" d="M2798 373 c6 -2 12 -11 12 -18 0 -7 4 -15 8 -17 5 -1 27 -43 50 -93
23 -49 45 -91 50 -93 5 -1 16 25 25 58 20 71 21 86 3 45 l-13 -30 -39 78 c-37
75 -39 77 -74 76 -19 0 -29 -3 -22 -6z"/>
<path fill="white" d="M2964 332 l-1 -47 13 40 c8 21 20 43 27 47 8 5 3 8 -13 8 -23 0 -25
-4 -26 -48z"/>
<path fill="white" d="M3058 368 c5 -7 15 -37 21 -67 11 -54 2 -120 -21 -148 -8 -10 -1 -13
30 -13 32 0 40 3 36 15 -10 25 17 88 67 158 47 63 48 67 25 67 -19 0 -22 -4
-19 -22 4 -24 -49 -99 -62 -87 -3 4 -7 30 -8 58 l-2 51 -39 0 c-29 0 -36 -3
-28 -12z"/>
<path d="M1996 304 c-4 -14 -5 -28 -3 -31 3 -2 8 8 11 23 4 14 5 28 3 31 -3 2
-8 -8 -11 -23z"/>
<path d="M1971 214 c0 -11 3 -14 6 -6 3 7 2 16 -1 19 -3 4 -6 -2 -5 -13z"/>
<path d="M2753 173 c-14 -29 -12 -37 9 -31 9 2 12 12 8 30 l-5 28 -12 -27z"/>
<path d="M1952 165 c-10 -22 -9 -25 7 -25 14 0 17 6 13 25 -2 14 -5 25 -7 25
-1 0 -7 -11 -13 -25z"/>
</g>
</svg>
